# xmcd
#
# Track frame offsets:
#	150
#	24755
#	42935
#	63402
#	77052
#	92860
#	112005
#	128367
#	141847
#	156752
#	172352
#	194087
#	212155
#	228005
#	245475
#
# Disc length: 3579 seconds
#
# Revision: 0
# Processed by: cddbd v1.5.2PL0 Copyright (c) Steve Scherf et al.
# Submitted via: EasyCDDAExtractor 2010.6.0.0
#
DISCID=cd0df90f
DTITLE=Various Artist - Bass Mixx Party Club Classics (Explicit)
DYEAR=1999
DGENRE=Rap
TTITLE0=2 Live Crew - 2 Live Crew Megamix DJ Laz and Felix Bama
TTITLE1=2 Live Crew - Do Wah Diddy
TTITLE2=Society - Yes Indeed
TTITLE3=Home Team - Pick It Up
TTITLE4=Home Team - Back To The Bronx
TTITLE5=Lejuan Love - Everybody Say Yeah
TTITLE6=LeJuan Love - It's Been A Long Time
TTITLE7=2 Live Crew - Hoochie Mama
TTITLE8=Luke - Breakdwon Ghetto Style Mix
TTITLE9=Luke - It's Your Birthday Bouns Mix
TTITLE10=True Two - I Was At A Jam
TTITLE11=2 Live Crew - Do The Damn Thing
TTITLE12=2 Live Crew - Be My Private Dancer DJ Spin Remix
TTITLE13=2 Live Crew - Shake Your Pants
TTITLE14=DJ Gusto - Megamix
EXTD=
EXTT0=
EXTT1=
EXTT2=
EXTT3=
EXTT4=
EXTT5=
EXTT6=
EXTT7=
EXTT8=
EXTT9=
EXTT10=
EXTT11=
EXTT12=
EXTT13=
EXTT14=
PLAYORDER=
